# Blender 4.5.1 LTS
# www.blender.org
mtllib leg5_wc.mtl
o hexapod_leg.004
v -0.805167 0.029320 0.420755
v -0.772964 0.029320 0.351694
v -0.574965 0.029320 0.528100
v -0.542762 0.029320 0.459039
v -0.968200 0.029320 0.168059
v -0.892000 0.029320 0.168059
v -0.968200 0.029320 0.320459
v -0.892000 0.029320 0.288096
v -0.784474 0.029320 0.346327
v -0.816678 0.029320 0.415388
v -0.884667 0.029320 0.299606
v -0.946202 0.029320 0.354989
v -0.886454 0.029320 0.298589
v -0.891834 0.029320 0.290145
v -0.891339 0.029320 0.292141
v -0.967701 0.029320 0.326607
v -0.890528 0.029320 0.294030
v -0.966216 0.029320 0.332594
v -0.963785 0.029320 0.338262
v -0.888054 0.029320 0.297297
v -0.951563 0.029320 0.351939
v -0.889424 0.029320 0.295764
v -0.956361 0.029320 0.348063
v -0.960471 0.029320 0.343464
v -0.892000 0.029320 0.155359
v -0.968200 0.029320 0.155359
v -0.892000 0.029320 0.066459
v -0.968200 0.029320 0.066459
v -0.930100 0.029320 0.028359
v -0.923484 0.029320 0.028938
v -0.917069 0.029320 0.030657
v -0.911050 0.029320 0.033464
v -0.905610 0.029320 0.037273
v -0.900914 0.029320 0.041969
v -0.897105 0.029320 0.047409
v -0.894298 0.029320 0.053428
v -0.892579 0.029320 0.059843
v -0.954590 0.029320 0.037273
v -0.967621 0.029320 0.059843
v -0.959286 0.029320 0.041969
v -0.965902 0.029320 0.053428
v -0.963096 0.029320 0.047409
v -0.949150 0.029320 0.033464
v -0.943131 0.029320 0.030657
v -0.936716 0.029320 0.028938
v -0.892000 0.042020 0.066459
v -0.892579 0.042020 0.059843
v -0.894298 0.042020 0.053428
v -0.897105 0.042020 0.047409
v -0.900914 0.042020 0.041969
v -0.905610 0.042020 0.037273
v -0.911050 0.042020 0.033464
v -0.917069 0.042020 0.030657
v -0.923484 0.042020 0.028938
v -0.930100 0.042020 0.028359
v -0.936716 0.042020 0.028938
v -0.943131 0.042020 0.030657
v -0.949150 0.042020 0.033464
v -0.954590 0.042020 0.037273
v -0.959286 0.042020 0.041969
v -0.963096 0.042020 0.047409
v -0.965902 0.042020 0.053428
v -0.967621 0.042020 0.059843
v -0.968200 0.042020 0.066459
v -0.968200 -0.021480 0.155359
v -0.968200 -0.021480 0.066459
v -0.968200 -0.034180 0.066459
v -0.968200 0.042020 0.320459
v -0.968200 -0.034180 0.320459
v -0.968200 -0.021480 0.320459
v -0.968200 -0.021480 0.168059
v -0.967701 0.042020 0.326607
v -0.966216 0.042020 0.332594
v -0.963785 0.042020 0.338262
v -0.960471 0.042020 0.343464
v -0.956361 0.042020 0.348063
v -0.951563 0.042020 0.351939
v -0.946202 0.042020 0.354989
v -0.574965 -0.021480 0.528100
v -0.805167 -0.021480 0.420755
v -0.946202 -0.034180 0.354989
v -0.390804 -0.034180 0.613976
v -0.390804 -0.021480 0.613976
v -0.563455 -0.021480 0.533467
v -0.563455 0.029320 0.533467
v -0.946202 -0.021480 0.354989
v -0.816678 -0.021480 0.415388
v -0.390804 0.042020 0.613976
v -0.390804 0.029320 0.613976
v -0.358600 0.029320 0.544915
v -0.358600 0.042020 0.544915
v -0.352849 0.042020 0.548236
v -0.384563 -0.034180 0.616247
v -0.384563 0.042020 0.616247
v -0.352849 -0.034180 0.548236
v -0.358600 -0.034180 0.544915
v -0.358600 -0.021480 0.544915
v -0.378022 -0.034180 0.617401
v -0.378022 0.042020 0.617401
v -0.371381 -0.034180 0.617401
v -0.371381 0.042020 0.617401
v -0.364841 -0.034180 0.616247
v -0.364841 0.042020 0.616247
v -0.358600 -0.034180 0.613976
v -0.358600 0.042020 0.613976
v -0.352849 -0.034180 0.610655
v -0.352849 0.042020 0.610655
v -0.347761 -0.034180 0.606386
v -0.347761 0.042020 0.606386
v -0.343492 -0.034180 0.601299
v -0.343492 0.042020 0.601299
v -0.340172 -0.034180 0.595547
v -0.340172 0.042020 0.595547
v -0.337900 -0.034180 0.589307
v -0.337900 0.042020 0.589307
v -0.336747 -0.034180 0.582766
v -0.336747 0.042020 0.582766
v -0.336747 -0.034180 0.576125
v -0.336747 0.042020 0.576125
v -0.337900 -0.034180 0.569585
v -0.337900 0.042020 0.569585
v -0.340172 -0.034180 0.563344
v -0.340172 0.042020 0.563344
v -0.343492 -0.034180 0.557592
v -0.343492 0.042020 0.557592
v -0.347761 -0.034180 0.552505
v -0.347761 0.042020 0.552505
v -0.884667 0.042020 0.299606
v -0.542762 -0.021480 0.459039
v -0.884667 -0.034180 0.299606
v -0.531252 0.029320 0.464406
v -0.884667 -0.021480 0.299606
v -0.784474 -0.021480 0.346327
v -0.772964 -0.021480 0.351694
v -0.531252 -0.021480 0.464406
v -0.892000 -0.021480 0.168059
v -0.892000 -0.021480 0.288096
v -0.892000 -0.034180 0.288096
v -0.892000 0.042020 0.288096
v -0.892000 -0.034180 0.066459
v -0.892000 -0.021480 0.066459
v -0.892000 -0.021480 0.155359
v -0.890528 0.042020 0.294030
v -0.891339 0.042020 0.292141
v -0.891834 0.042020 0.290145
v -0.886454 0.042020 0.298589
v -0.888054 0.042020 0.297297
v -0.889424 0.042020 0.295764
v -0.894298 -0.021480 0.053428
v -0.936716 -0.021480 0.028938
v -0.892579 -0.021480 0.059843
v -0.905610 -0.021480 0.037273
v -0.911050 -0.021480 0.033464
v -0.900914 -0.021480 0.041969
v -0.917069 -0.021480 0.030657
v -0.923484 -0.021480 0.028938
v -0.967621 -0.021480 0.059843
v -0.965902 -0.021480 0.053428
v -0.897105 -0.021480 0.047409
v -0.930100 -0.021480 0.028359
v -0.943131 -0.021480 0.030657
v -0.949150 -0.021480 0.033464
v -0.954590 -0.021480 0.037273
v -0.959286 -0.021480 0.041969
v -0.963096 -0.021480 0.047409
v -0.889424 -0.021480 0.295764
v -0.951563 -0.021480 0.351939
v -0.888054 -0.021480 0.297297
v -0.886454 -0.021480 0.298589
v -0.966216 -0.021480 0.332594
v -0.963785 -0.021480 0.338262
v -0.890528 -0.021480 0.294030
v -0.960471 -0.021480 0.343464
v -0.956361 -0.021480 0.348063
v -0.967701 -0.021480 0.326607
v -0.891339 -0.021480 0.292141
v -0.891834 -0.021480 0.290145
v -0.951563 -0.034180 0.351939
v -0.956361 -0.034180 0.348063
v -0.960471 -0.034180 0.343464
v -0.963785 -0.034180 0.338262
v -0.966216 -0.034180 0.332594
v -0.967701 -0.034180 0.326607
v -0.967621 -0.034180 0.059843
v -0.965902 -0.034180 0.053428
v -0.963096 -0.034180 0.047409
v -0.959286 -0.034180 0.041969
v -0.954590 -0.034180 0.037273
v -0.949150 -0.034180 0.033464
v -0.943131 -0.034180 0.030657
v -0.936716 -0.034180 0.028938
v -0.930100 -0.034180 0.028359
v -0.923484 -0.034180 0.028938
v -0.917069 -0.034180 0.030657
v -0.911050 -0.034180 0.033464
v -0.905610 -0.034180 0.037273
v -0.900914 -0.034180 0.041969
v -0.897105 -0.034180 0.047409
v -0.894298 -0.034180 0.053428
v -0.892579 -0.034180 0.059843
v -0.888054 -0.034180 0.297297
v -0.889424 -0.034180 0.295764
v -0.890528 -0.034180 0.294030
v -0.891834 -0.034180 0.290145
v -0.891339 -0.034180 0.292141
v -0.886454 -0.034180 0.298589
vn -0.0000 -1.0000 -0.0000
vn 0.9962 -0.0000 -0.0872
vn 0.9659 -0.0000 -0.2588
vn 0.9063 -0.0000 -0.4226
vn 0.8192 -0.0000 -0.5736
vn 0.7071 -0.0000 -0.7071
vn 0.5736 -0.0000 -0.8192
vn 0.5736 -0.0000 -0.8191
vn 0.4226 -0.0000 -0.9063
vn 0.2588 -0.0000 -0.9659
vn 0.0872 -0.0000 -0.9962
vn -0.0872 -0.0000 -0.9962
vn -0.2588 -0.0000 -0.9659
vn -0.4226 -0.0000 -0.9063
vn -0.5736 -0.0000 -0.8191
vn -0.5736 -0.0000 -0.8192
vn -0.7071 -0.0000 -0.7071
vn -0.8192 -0.0000 -0.5736
vn -0.9063 -0.0000 -0.4226
vn -0.9659 -0.0000 -0.2588
vn -0.9962 -0.0000 -0.0872
vn -1.0000 -0.0000 -0.0000
vn -1.0000 -0.0002 -0.0000
vn -1.0000 0.0002 -0.0000
vn -0.9967 -0.0000 0.0809
vn -0.9706 -0.0000 0.2407
vn -0.9190 -0.0000 0.3942
vn -0.8434 -0.0000 0.5373
vn -0.7456 -0.0000 0.6663
vn -0.6284 -0.0000 0.7779
vn -0.4946 -0.0000 0.8691
vn -0.4226 -0.0000 0.9063
vn -0.4226 -0.0001 0.9063
vn 0.5000 -0.0000 -0.8660
vn -0.3420 -0.0000 0.9397
vn -0.1736 -0.0000 0.9848
vn -0.0000 -0.0000 1.0000
vn 0.1736 -0.0000 0.9848
vn 0.3420 -0.0000 0.9397
vn 0.5000 -0.0000 0.8660
vn 0.6428 -0.0000 0.7660
vn 0.7660 -0.0000 0.6428
vn 0.8660 -0.0000 0.5000
vn 0.9397 -0.0000 0.3420
vn 0.9848 -0.0000 0.1736
vn 1.0000 -0.0000 -0.0000
vn 0.9848 -0.0000 -0.1736
vn 0.9397 -0.0000 -0.3420
vn 0.8660 -0.0000 -0.5000
vn 0.7660 -0.0000 -0.6428
vn 0.6428 -0.0000 -0.7660
vn -0.0000 1.0000 -0.0000
vn -0.0000 -0.0000 -1.0000
vn 0.9063 -0.0000 0.4226
vn 0.9967 -0.0000 -0.0809
vn 0.9706 -0.0000 -0.2407
vn 0.9190 -0.0000 -0.3942
vn 0.8434 -0.0000 -0.5373
vn 0.7456 -0.0000 -0.6663
vn 0.6284 -0.0000 -0.7779
vn 0.4946 -0.0000 -0.8691
s 0
f 1//1 2//1 3//1
f 3//1 2//1 4//1
f 5//1 6//1 7//1
f 7//1 6//1 8//1
f 9//1 10//1 11//1
f 11//1 10//1 12//1
f 11//1 12//1 13//1
f 8//1 14//1 7//1
f 7//1 14//1 15//1
f 7//1 15//1 16//1
f 16//1 15//1 17//1
f 16//1 17//1 18//1
f 18//1 17//1 19//1
f 13//1 12//1 20//1
f 20//1 12//1 21//1
f 20//1 21//1 22//1
f 22//1 21//1 23//1
f 22//1 23//1 17//1
f 17//1 23//1 24//1
f 17//1 24//1 19//1
f 25//1 26//1 27//1
f 27//1 26//1 28//1
f 29//1 30//1 28//1
f 28//1 30//1 31//1
f 28//1 31//1 32//1
f 32//1 33//1 28//1
f 28//1 33//1 34//1
f 28//1 34//1 35//1
f 35//1 36//1 28//1
f 28//1 36//1 37//1
f 28//1 37//1 27//1
f 38//1 39//1 40//1
f 40//1 39//1 41//1
f 40//1 41//1 42//1
f 38//1 43//1 39//1
f 39//1 43//1 44//1
f 39//1 44//1 28//1
f 28//1 44//1 45//1
f 28//1 45//1 29//1
f 46//2 27//2 37//2
f 46//2 37//2 47//2
f 47//3 37//3 36//3
f 47//3 36//3 48//3
f 48//4 36//4 35//4
f 48//4 35//4 49//4
f 49//5 35//5 34//5
f 49//5 34//5 50//5
f 50//6 34//6 33//6
f 50//6 33//6 51//6
f 51//7 33//7 32//7
f 51//8 32//8 52//8
f 52//9 32//9 31//9
f 52//9 31//9 53//9
f 53//10 31//10 30//10
f 53//10 30//10 54//10
f 54//11 30//11 29//11
f 54//11 29//11 55//11
f 55//12 29//12 45//12
f 55//12 45//12 56//12
f 56//13 45//13 44//13
f 56//13 44//13 57//13
f 57//14 44//14 43//14
f 57//14 43//14 58//14
f 58//15 43//15 38//15
f 58//16 38//16 59//16
f 59//17 38//17 40//17
f 59//17 40//17 60//17
f 60//18 40//18 42//18
f 60//18 42//18 61//18
f 61//19 42//19 41//19
f 61//19 41//19 62//19
f 62//20 41//20 39//20
f 62//20 39//20 63//20
f 63//21 39//21 28//21
f 63//21 28//21 64//21
f 65//22 66//22 67//22
f 68//22 64//22 26//22
f 26//22 64//22 28//22
f 69//22 70//22 71//22
f 7//22 68//22 5//22
f 5//23 68//23 26//23
f 5//22 26//22 71//22
f 71//22 26//22 65//22
f 71//24 65//24 69//24
f 69//22 65//22 67//22
f 68//25 7//25 16//25
f 68//25 16//25 72//25
f 72//26 16//26 18//26
f 72//26 18//26 73//26
f 73//27 18//27 19//27
f 73//27 19//27 74//27
f 74//28 19//28 24//28
f 74//28 24//28 75//28
f 75//29 24//29 23//29
f 75//29 23//29 76//29
f 76//30 23//30 21//30
f 76//30 21//30 77//30
f 77//31 21//31 12//31
f 77//31 12//31 78//31
f 79//32 80//32 81//32
f 82//32 83//32 84//32
f 81//32 82//32 79//32
f 79//32 82//32 84//32
f 79//32 84//32 3//32
f 3//32 84//32 85//32
f 78//32 12//32 10//32
f 86//32 81//32 87//32
f 87//32 81//32 80//32
f 87//32 80//32 10//32
f 10//32 80//32 1//32
f 10//32 1//32 78//32
f 78//32 1//32 3//32
f 78//32 3//32 88//32
f 88//33 3//33 85//33
f 88//32 85//32 89//32
f 90//34 91//34 92//34
f 83//35 82//35 93//35
f 94//35 88//35 89//35
f 83//35 93//35 89//35
f 95//34 96//34 97//34
f 89//35 93//35 94//35
f 94//36 93//36 98//36
f 94//36 98//36 99//36
f 99//37 98//37 100//37
f 99//37 100//37 101//37
f 101//38 100//38 102//38
f 101//38 102//38 103//38
f 103//39 102//39 104//39
f 103//39 104//39 105//39
f 105//40 104//40 106//40
f 105//40 106//40 107//40
f 107//41 106//41 108//41
f 107//41 108//41 109//41
f 109//42 108//42 110//42
f 109//42 110//42 111//42
f 111//43 110//43 112//43
f 111//43 112//43 113//43
f 113//44 112//44 114//44
f 113//44 114//44 115//44
f 115//45 114//45 116//45
f 115//45 116//45 117//45
f 117//46 116//46 118//46
f 117//46 118//46 119//46
f 119//47 118//47 120//47
f 119//47 120//47 121//47
f 121//48 120//48 122//48
f 121//48 122//48 123//48
f 123//49 122//49 124//49
f 123//49 124//49 125//49
f 125//50 124//50 126//50
f 125//50 126//50 127//50
f 127//51 126//51 95//51
f 127//51 95//51 92//51
f 92//34 95//34 97//34
f 92//34 97//34 90//34
f 9//9 11//9 128//9
f 129//9 96//9 130//9
f 128//9 91//9 131//9
f 131//9 91//9 90//9
f 130//9 132//9 133//9
f 129//9 130//9 134//9
f 134//9 130//9 133//9
f 134//9 133//9 2//9
f 133//9 9//9 2//9
f 2//9 9//9 128//9
f 2//9 128//9 4//9
f 4//9 128//9 131//9
f 4//9 131//9 129//9
f 129//9 131//9 135//9
f 129//9 135//9 96//9
f 96//9 135//9 97//9
f 136//46 137//46 138//46
f 25//46 27//46 46//46
f 139//46 8//46 6//46
f 140//46 141//46 142//46
f 46//46 139//46 25//46
f 25//46 139//46 6//46
f 25//46 6//46 142//46
f 142//46 6//46 136//46
f 142//46 136//46 140//46
f 140//46 136//46 138//46
f 128//52 78//52 91//52
f 91//52 78//52 88//52
f 91//52 88//52 92//52
f 115//52 117//52 88//52
f 73//52 143//52 72//52
f 72//52 143//52 144//52
f 72//52 144//52 68//52
f 144//52 145//52 68//52
f 68//52 145//52 139//52
f 68//52 139//52 64//52
f 64//52 139//52 46//52
f 128//52 146//52 78//52
f 78//52 146//52 147//52
f 78//52 147//52 77//52
f 77//52 147//52 148//52
f 73//52 74//52 143//52
f 143//52 74//52 75//52
f 143//52 75//52 148//52
f 148//52 75//52 76//52
f 148//52 76//52 77//52
f 117//52 119//52 88//52
f 88//52 119//52 121//52
f 88//52 121//52 123//52
f 46//52 47//52 64//52
f 64//52 47//52 48//52
f 64//52 48//52 49//52
f 49//52 50//52 64//52
f 64//52 50//52 51//52
f 64//52 51//52 52//52
f 115//52 88//52 113//52
f 113//52 88//52 94//52
f 113//52 94//52 99//52
f 123//52 125//52 88//52
f 88//52 125//52 127//52
f 88//52 127//52 92//52
f 52//52 53//52 64//52
f 64//52 53//52 54//52
f 64//52 54//52 55//52
f 61//52 62//52 60//52
f 60//52 62//52 63//52
f 60//52 63//52 59//52
f 109//52 103//52 107//52
f 107//52 103//52 105//52
f 99//52 101//52 113//52
f 113//52 101//52 103//52
f 113//52 103//52 111//52
f 111//52 103//52 109//52
f 55//52 56//52 64//52
f 64//52 56//52 57//52
f 64//52 57//52 63//52
f 63//52 57//52 58//52
f 63//52 58//52 59//52
f 85//1 131//1 89//1
f 89//1 131//1 90//1
f 142//53 65//53 25//53
f 25//53 65//53 26//53
f 71//37 136//37 5//37
f 5//37 136//37 6//37
f 133//19 87//19 9//19
f 9//19 87//19 10//19
f 80//54 134//54 1//54
f 1//54 134//54 2//54
f 84//54 135//54 85//54
f 85//54 135//54 131//54
f 129//19 79//19 4//19
f 4//19 79//19 3//19
f 97//19 83//19 90//19
f 90//19 83//19 89//19
f 149//52 150//52 151//52
f 151//52 150//52 141//52
f 152//52 153//52 154//52
f 154//52 153//52 155//52
f 154//52 155//52 156//52
f 65//52 142//52 66//52
f 66//52 142//52 141//52
f 66//52 141//52 157//52
f 157//52 141//52 158//52
f 149//52 159//52 150//52
f 150//52 159//52 154//52
f 150//52 154//52 160//52
f 160//52 154//52 156//52
f 150//52 161//52 141//52
f 141//52 161//52 162//52
f 141//52 162//52 163//52
f 163//52 164//52 141//52
f 141//52 164//52 165//52
f 141//52 165//52 158//52
f 136//52 71//52 137//52
f 137//52 71//52 70//52
f 166//52 167//52 168//52
f 168//52 167//52 86//52
f 168//52 86//52 169//52
f 170//52 171//52 172//52
f 172//52 171//52 173//52
f 172//52 173//52 166//52
f 166//52 173//52 174//52
f 166//52 174//52 167//52
f 170//52 172//52 175//52
f 175//52 172//52 176//52
f 175//52 176//52 70//52
f 70//52 176//52 177//52
f 70//52 177//52 137//52
f 87//52 133//52 86//52
f 86//52 133//52 132//52
f 86//52 132//52 169//52
f 97//52 135//52 83//52
f 83//52 135//52 84//52
f 80//52 79//52 134//52
f 134//52 79//52 129//52
f 81//31 86//31 167//31
f 81//31 167//31 178//31
f 178//30 167//30 174//30
f 178//30 174//30 179//30
f 179//29 174//29 173//29
f 179//29 173//29 180//29
f 180//28 173//28 171//28
f 180//28 171//28 181//28
f 181//27 171//27 170//27
f 181//27 170//27 182//27
f 182//26 170//26 175//26
f 182//26 175//26 183//26
f 183//25 175//25 70//25
f 183//25 70//25 69//25
f 67//21 66//21 157//21
f 67//21 157//21 184//21
f 184//20 157//20 158//20
f 184//20 158//20 185//20
f 185//19 158//19 165//19
f 185//19 165//19 186//19
f 186//18 165//18 164//18
f 186//18 164//18 187//18
f 187//17 164//17 163//17
f 187//17 163//17 188//17
f 188//15 163//15 162//15
f 188//16 162//16 189//16
f 189//14 162//14 161//14
f 189//14 161//14 190//14
f 190//13 161//13 150//13
f 190//13 150//13 191//13
f 191//12 150//12 160//12
f 191//12 160//12 192//12
f 192//11 160//11 156//11
f 192//11 156//11 193//11
f 193//10 156//10 155//10
f 193//10 155//10 194//10
f 194//9 155//9 153//9
f 194//9 153//9 195//9
f 195//7 153//7 152//7
f 195//8 152//8 196//8
f 196//6 152//6 154//6
f 196//6 154//6 197//6
f 197//5 154//5 159//5
f 197//5 159//5 198//5
f 198//4 159//4 149//4
f 198//4 149//4 199//4
f 199//3 149//3 151//3
f 199//3 151//3 200//3
f 200//2 151//2 141//2
f 200//2 141//2 140//2
f 138//1 69//1 140//1
f 140//1 69//1 67//1
f 201//1 81//1 178//1
f 201//1 178//1 202//1
f 202//1 178//1 179//1
f 202//1 179//1 203//1
f 203//1 179//1 180//1
f 203//1 180//1 181//1
f 198//1 199//1 191//1
f 138//1 204//1 69//1
f 69//1 204//1 205//1
f 69//1 205//1 183//1
f 183//1 205//1 203//1
f 183//1 203//1 182//1
f 182//1 203//1 181//1
f 67//1 184//1 140//1
f 140//1 184//1 185//1
f 140//1 185//1 186//1
f 193//1 194//1 197//1
f 197//1 194//1 195//1
f 197//1 195//1 196//1
f 189//1 190//1 140//1
f 140//1 190//1 191//1
f 140//1 191//1 200//1
f 200//1 191//1 199//1
f 201//1 206//1 81//1
f 81//1 206//1 130//1
f 81//1 130//1 82//1
f 82//1 130//1 96//1
f 198//1 191//1 197//1
f 197//1 191//1 192//1
f 197//1 192//1 193//1
f 186//1 187//1 140//1
f 140//1 187//1 188//1
f 140//1 188//1 189//1
f 118//1 116//1 82//1
f 82//1 116//1 114//1
f 82//1 114//1 112//1
f 96//1 95//1 82//1
f 82//1 95//1 126//1
f 82//1 126//1 124//1
f 124//1 122//1 82//1
f 82//1 122//1 120//1
f 82//1 120//1 118//1
f 108//1 106//1 104//1
f 100//1 98//1 112//1
f 112//1 98//1 93//1
f 112//1 93//1 82//1
f 112//1 110//1 100//1
f 100//1 110//1 108//1
f 100//1 108//1 102//1
f 102//1 108//1 104//1
f 8//55 139//55 14//55
f 14//55 139//55 145//55
f 14//56 145//56 15//56
f 15//56 145//56 144//56
f 15//57 144//57 17//57
f 17//57 144//57 143//57
f 17//58 143//58 22//58
f 22//58 143//58 148//58
f 22//59 148//59 20//59
f 20//59 148//59 147//59
f 20//60 147//60 13//60
f 13//60 147//60 146//60
f 13//61 146//61 11//61
f 11//61 146//61 128//61
f 132//61 130//61 169//61
f 169//61 130//61 206//61
f 169//60 206//60 168//60
f 168//60 206//60 201//60
f 168//59 201//59 166//59
f 166//59 201//59 202//59
f 166//58 202//58 172//58
f 172//58 202//58 203//58
f 172//57 203//57 176//57
f 176//57 203//57 205//57
f 176//56 205//56 177//56
f 177//56 205//56 204//56
f 177//55 204//55 137//55
f 137//55 204//55 138//55
